# xmcd
#
# Track frame offsets:
# 150
# 16185
# 28570
# 43682
# 54595
# 71517
# 87170
# 103669
# 119868
# 134684
# 147233
# 163289
# 176322
# 196267
# 217576
# 235009
# 253287
# 274995
# 290857
# 311578
#
# Disc length: 4394 seconds
#
#
# Revision: 0
# Processed by: cddbd v1.5.1PL0 Copyright (c) Steve Scherf et al.
# Submitted via: FreeRIP 2.70 
#
DISCID=2f112814
DTITLE=Selecao Sertaneja - Selecao Sertaneja
DYEAR=1900
DGENRE=Sertanejo
TTITLE0=Daniel - Meu Reino Encantaado
TTITLE1=Jad e Jerfferson - Saco de Ouro
TTITLE2=Tiao Carreiro e Pardinho - A Vaca Ja Foi Pro Brejo
TTITLE3=Liu e Leu - Caminhoneiro
TTITLE4=Dino Franco e Mourai - Nelore Valente
TTITLE5=Nestor e Nestorzinho - Relogio Quebrado
TTITLE6=Tiao Carreiro e Pardinho - La Onde Eu Moro
TTITLE7=Goiano e Paranaense - O Doutor e o Caipira
TTITLE8=Ze Fortuna e Pitangueira - Paineira Velha
TTITLE9=Tonico e Tinoco - Mourao Da Fronteira
TTITLE10=Tiao Carreiro e Pardinho - O Prato do Dia
TTITLE11=Bel Monte e Amarai - Capricho do Destino
TTITLE12=Jaco e Jocozinho - A Capa Do Viajante
TTITLE13=Praiao e Prainha - Igreijinha da Serra
TTITLE14=Silveira e Barrinha - Coracao de Vitela
TTITLE15=Lourenco e Lourival - Velha Porteira
TTITLE16=Chrystian e Ralf - Olhos de Luar
TTITLE17=Rolando Bolfrin - Folha Seca
TTITLE18=Lourenco e Lourval - Menina da Aldeia
TTITLE19=Tibagi e Miltinho - Arrependimento
EXTD=
EXTT0=
EXTT1=
EXTT2=
EXTT3=
EXTT4=
EXTT5=
EXTT6=
EXTT7=
EXTT8=
EXTT9=
EXTT10=
EXTT11=
EXTT12=
EXTT13=
EXTT14=
EXTT15=
EXTT16=
EXTT17=
EXTT18=
EXTT19=
PLAYORDER=
